<svg width="20" height="20" viewBox="0 0 20 20" fill="none" xmlns="http://www.w3.org/2000/svg">
<path d="M14.4806 0H5.51916C2.4759 0 0 2.47601 0 5.51928V14.4807C0 17.5241 2.4759 20 5.51916 20H14.4806C17.5241 20 20 17.524 20 14.4807V5.51928C20.0001 2.47601 17.5241 0 14.4806 0ZM18.2256 14.4807C18.2256 16.5456 16.5456 18.2255 14.4807 18.2255H5.51916C3.45435 18.2256 1.7745 16.5456 1.7745 14.4807V5.51928C1.7745 3.45447 3.45435 1.7745 5.51916 1.7745H14.4806C16.5455 1.7745 18.2255 3.45447 18.2255 5.51928L18.2256 14.4807Z" fill="#1B1B1C"/>
<path d="M10 4.84671C7.15833 4.84671 4.84652 7.15853 4.84652 10.0002C4.84652 12.8418 7.15833 15.1535 10 15.1535C12.8417 15.1535 15.1535 12.8418 15.1535 10.0002C15.1535 7.15853 12.8417 4.84671 10 4.84671ZM10 13.3789C8.13691 13.3789 6.62101 11.8632 6.62101 10.0001C6.62101 8.13687 8.13679 6.62109 10 6.62109C11.8632 6.62109 13.379 8.13687 13.379 10.0001C13.379 11.8632 11.8631 13.3789 10 13.3789Z" fill="#1B1B1C"/>
<path d="M15.3697 3.34207C15.0278 3.34207 14.6919 3.48048 14.4505 3.723C14.2078 3.96433 14.0684 4.3003 14.0684 4.64337C14.0684 4.98537 14.208 5.32123 14.4505 5.56374C14.6918 5.80507 15.0278 5.94467 15.3697 5.94467C15.7127 5.94467 16.0475 5.80507 16.29 5.56374C16.5326 5.32123 16.671 4.98526 16.671 4.64337C16.671 4.3003 16.5326 3.96433 16.29 3.723C16.0487 3.48048 15.7127 3.34207 15.3697 3.34207Z" fill="#1B1B1C"/>
</svg>
