<svg width="30" height="16" viewBox="0 0 30 16" fill="none" xmlns="http://www.w3.org/2000/svg">
<path fill-rule="evenodd" clip-rule="evenodd" d="M25.8193 10.1735C26.8144 11.0892 27.8648 11.9507 28.7573 12.9587C29.1515 13.4066 29.5248 13.8688 29.8104 14.3887C30.215 15.1276 29.8485 15.9408 29.1454 15.985L24.775 15.9831C23.6477 16.0713 22.7485 15.6436 21.9924 14.9172C21.3873 14.3364 20.8269 13.7182 20.2451 13.1177C20.0066 12.8723 19.7569 12.6413 19.4586 12.4588C18.862 12.0938 18.3441 12.2056 18.0032 12.792C17.6559 13.3885 17.5772 14.049 17.5431 14.7137C17.4962 15.6836 17.1852 15.9386 16.1514 15.983C13.9421 16.0812 11.8454 15.7662 9.89757 14.7158C8.18033 13.7899 6.84868 12.4827 5.68962 11.0028C3.43292 8.12114 1.70474 4.95467 0.15151 1.69949C-0.198109 0.966094 0.0575753 0.572411 0.916197 0.558477C2.34198 0.532374 3.76756 0.534232 5.19501 0.556619C5.77449 0.564608 6.15812 0.877845 6.38186 1.39378C7.15325 3.18133 8.09713 4.88203 9.28192 6.45843C9.59743 6.87813 9.91916 7.29782 10.3773 7.59322C10.8841 7.9203 11.27 7.81189 11.5085 7.2798C11.6598 6.94241 11.726 6.57901 11.7601 6.21765C11.8731 4.97446 11.8879 3.7334 11.6898 2.49457C11.5682 1.72141 11.1061 1.2209 10.2875 1.07459C9.86977 1 9.93197 0.853507 10.1342 0.628798C10.4855 0.241245 10.8159 0 11.4746 0H16.4139C17.1915 0.144635 17.3642 0.473851 17.4706 1.21124L17.4748 6.38198C17.4664 6.66744 17.6261 7.51454 18.1717 7.70349C18.6084 7.838 18.8962 7.50878 19.1582 7.24784C20.3408 6.06493 21.1848 4.66698 21.9389 3.21942C22.2735 2.58291 22.5612 1.92188 22.8401 1.2614C23.0467 0.771296 23.3709 0.530144 23.9566 0.540827L28.7105 0.544821C28.8514 0.544821 28.994 0.546772 29.1306 0.568788C29.9316 0.697446 30.1511 1.0222 29.9037 1.75941C29.5139 2.91603 28.7554 3.87989 28.0138 4.84821C27.221 5.88203 26.3731 6.88045 25.587 7.92039C24.8647 8.87004 24.922 9.34873 25.8193 10.1735Z" fill="#1B1B1C"/>
</svg>
