<svg width="14" height="11" viewBox="0 0 14 11" fill="none" xmlns="http://www.w3.org/2000/svg">
<path d="M12.7493 11C13.064 11 13.3367 10.8961 13.5685 10.6909L9.60222 6.72436C9.50706 6.7925 9.41483 6.85877 9.3277 6.92178C9.03088 7.14047 8.78998 7.31113 8.605 7.43341C8.42005 7.55598 8.17396 7.6809 7.86678 7.80845C7.55939 7.93615 7.27302 7.99979 7.00736 7.99979H6.99181C6.72613 7.99979 6.43976 7.93617 6.1324 7.80845C5.82503 7.6809 5.57895 7.55598 5.39417 7.43341C5.20921 7.31113 4.96844 7.1405 4.67147 6.92178C4.58872 6.86111 4.49694 6.79454 4.39771 6.72329L0.430708 10.6909C0.662483 10.8961 0.93533 11 1.24999 11H12.7493Z" fill="#1B1B1C"/>
<path d="M0.78911 4.22666C0.49232 4.02878 0.229131 3.80216 0 3.54689V9.58169L3.49583 6.08571C2.79647 5.59744 1.89537 4.97846 0.78911 4.22666Z" fill="#1B1B1C"/>
<path d="M13.2182 4.22666C12.1541 4.9469 11.2497 5.56694 10.505 6.08711L13.9994 9.58185V3.54689C13.7754 3.79702 13.515 4.0235 13.2182 4.22666Z" fill="#1B1B1C"/>
<path d="M12.75 0H1.25066C0.849485 0 0.541055 0.135476 0.324988 0.40615C0.108743 0.67695 0.000798648 1.01562 0.000798648 1.42177C0.000798648 1.74983 0.144047 2.1053 0.430416 2.48827C0.716785 2.87108 1.02151 3.17177 1.34442 3.39049C1.52145 3.51557 2.0553 3.88672 2.94598 4.50382C3.42678 4.83702 3.84491 5.12744 4.20423 5.37806C4.5105 5.59146 4.77463 5.77628 4.9927 5.92965C5.01774 5.94721 5.05711 5.97537 5.10936 6.01274C5.16566 6.05318 5.2369 6.1045 5.3248 6.16796C5.49404 6.29038 5.63465 6.38933 5.74664 6.46492C5.85847 6.54054 5.99396 6.625 6.15292 6.71879C6.31175 6.81246 6.46155 6.88289 6.60216 6.92973C6.74279 6.97655 6.87297 7.00004 6.99274 7.00004H7.00829C7.12803 7.00004 7.25824 6.97655 7.39889 6.92973C7.53947 6.88289 7.68915 6.81261 7.84811 6.71879C8.00691 6.625 8.14223 6.54036 8.25442 6.46492C8.3664 6.38933 8.50701 6.2904 8.67628 6.16796C8.764 6.1045 8.83524 6.05315 8.89154 6.01287C8.94382 5.97535 8.98316 5.94736 9.00835 5.92965C9.17824 5.81143 9.44298 5.62738 9.79891 5.38022C10.4466 4.9302 11.4004 4.26784 12.6644 3.39049C13.0446 3.12496 13.3622 2.80451 13.6175 2.42963C13.8723 2.05474 14 1.66151 14 1.25004C14 0.906269 13.8761 0.612109 13.629 0.367108C13.3815 0.122412 13.0885 0 12.75 0Z" fill="#1B1B1C"/>
</svg>
